<svg width="205" height="20" viewBox="0 0 205 20" fill="none" xmlns="http://www.w3.org/2000/svg">
<path d="M8.408 19.336C10.712 19.336 12.608 18.448 14.072 16.744L12.2 14.512C11.264 15.544 10.064 16.264 8.552 16.264C5.72 16.264 3.92 13.96 3.92 10.072C3.92 6.28 5.936 3.976 8.6 3.976C9.968 3.976 10.976 4.576 11.888 5.464L13.76 3.184C12.608 1.984 10.808 0.927999 8.552 0.927999C4.04 0.927999 0.296 4.336 0.296 10.192C0.296 16.12 3.92 19.336 8.408 19.336ZM16.934 19H28.094V16.024H20.486V11.296H26.702V8.296H20.486V4.192H27.83V1.24H16.934V19ZM31.6996 19H35.2516V12.304H37.8676C41.5876 12.304 44.5396 10.576 44.5396 6.616C44.5396 2.536 41.5876 1.24 37.8676 1.24H31.6996V19ZM35.2516 9.496V4.072H37.5316C39.8356 4.072 41.0836 4.72 41.0836 6.616C41.0836 8.512 39.8356 9.496 37.5316 9.496H35.2516ZM41.3476 19H45.3076L39.6916 9.16L37.2196 11.392L41.3476 19ZM51.0011 19H54.5531V4.192H59.5691V1.24H45.9851V4.192H51.0011V19ZM62.4731 19H66.0251V1.24H62.4731V19ZM77.6189 19.336C79.9229 19.336 81.8189 18.448 83.2829 16.744L81.4109 14.512C80.4749 15.544 79.2749 16.264 77.7629 16.264C74.9309 16.264 73.1309 13.96 73.1309 10.072C73.1309 6.28 75.1469 3.976 77.8109 3.976C79.1789 3.976 80.1869 4.576 81.0989 5.464L82.9709 3.184C81.8189 1.984 80.0189 0.927999 77.7629 0.927999C73.2509 0.927999 69.5069 4.336 69.5069 10.192C69.5069 16.12 73.1309 19.336 77.6189 19.336ZM92.1228 19.336C96.8268 19.336 100.043 15.832 100.043 10.048C100.043 4.288 96.8268 0.927999 92.1228 0.927999C87.3948 0.927999 84.1788 4.264 84.1788 10.048C84.1788 15.832 87.3948 19.336 92.1228 19.336ZM92.1228 16.264C89.4588 16.264 87.8028 13.84 87.8028 10.048C87.8028 6.256 89.4588 3.976 92.1228 3.976C94.7628 3.976 96.4428 6.256 96.4428 10.048C96.4428 13.84 94.7628 16.264 92.1228 16.264ZM108.84 19.336C112.92 19.336 115.344 16.864 115.344 13.96C115.344 11.416 113.928 10.024 111.792 9.136L109.464 8.176C107.952 7.576 106.68 7.096 106.68 5.824C106.68 4.672 107.664 3.976 109.224 3.976C110.688 3.976 111.864 4.504 113.016 5.44L114.792 3.208C113.352 1.744 111.288 0.927999 109.224 0.927999C105.648 0.927999 103.08 3.16 103.08 6.064C103.08 8.632 104.904 10.096 106.68 10.816L109.056 11.824C110.64 12.496 111.72 12.928 111.72 14.248C111.72 15.472 110.76 16.264 108.912 16.264C107.352 16.264 105.648 15.496 104.4 14.32L102.36 16.768C104.088 18.424 106.44 19.336 108.84 19.336ZM123.95 19H130.286C134.174 19 137.15 17.344 137.15 13.768C137.15 11.392 135.734 10.024 133.838 9.568V9.472C135.35 8.92 136.238 7.264 136.238 5.632C136.238 2.32 133.454 1.24 129.806 1.24H123.95V19ZM127.502 8.464V3.976H129.614C131.75 3.976 132.782 4.576 132.782 6.136C132.782 7.576 131.822 8.464 129.566 8.464H127.502ZM127.502 16.264V11.104H129.974C132.422 11.104 133.694 11.848 133.694 13.576C133.694 15.4 132.374 16.264 129.974 16.264H127.502ZM147.342 19.336C152.046 19.336 155.262 15.832 155.262 10.048C155.262 4.288 152.046 0.927999 147.342 0.927999C142.614 0.927999 139.398 4.264 139.398 10.048C139.398 15.832 142.614 19.336 147.342 19.336ZM147.342 16.264C144.678 16.264 143.022 13.84 143.022 10.048C143.022 6.256 144.678 3.976 147.342 3.976C149.982 3.976 151.662 6.256 151.662 10.048C151.662 13.84 149.982 16.264 147.342 16.264ZM165.81 19.336C170.514 19.336 173.73 15.832 173.73 10.048C173.73 4.288 170.514 0.927999 165.81 0.927999C161.082 0.927999 157.866 4.264 157.866 10.048C157.866 15.832 161.082 19.336 165.81 19.336ZM165.81 16.264C163.146 16.264 161.49 13.84 161.49 10.048C161.49 6.256 163.146 3.976 165.81 3.976C168.45 3.976 170.13 6.256 170.13 10.048C170.13 13.84 168.45 16.264 165.81 16.264ZM177.223 19H180.775V14.008L183.103 11.032L187.711 19H191.575L185.191 8.224L190.639 1.24H186.727L180.823 8.944H180.775V1.24H177.223V19ZM198.371 19.336C202.451 19.336 204.875 16.864 204.875 13.96C204.875 11.416 203.459 10.024 201.323 9.136L198.995 8.176C197.483 7.576 196.211 7.096 196.211 5.824C196.211 4.672 197.195 3.976 198.755 3.976C200.219 3.976 201.395 4.504 202.547 5.44L204.323 3.208C202.883 1.744 200.819 0.927999 198.755 0.927999C195.179 0.927999 192.611 3.16 192.611 6.064C192.611 8.632 194.435 10.096 196.211 10.816L198.587 11.824C200.171 12.496 201.251 12.928 201.251 14.248C201.251 15.472 200.291 16.264 198.443 16.264C196.883 16.264 195.179 15.496 193.931 14.32L191.891 16.768C193.619 18.424 195.971 19.336 198.371 19.336Z" fill="#353C49"/>
</svg>
