<svg width="28" height="26" viewBox="0 0 28 26" fill="none" xmlns="http://www.w3.org/2000/svg">
<path d="M13.9998 25.2333L12.0665 23.4999C9.82206 21.4777 7.9665 19.7333 6.49984 18.2666C5.03317 16.7999 3.8665 15.483 2.99984 14.3159C2.13317 13.1497 1.52784 12.0777 1.18384 11.0999C0.838948 10.1222 0.666504 9.12216 0.666504 8.09993C0.666504 6.01105 1.3665 4.2666 2.7665 2.8666C4.1665 1.4666 5.91095 0.766602 7.99984 0.766602C9.15539 0.766602 10.2554 1.01105 11.2998 1.49993C12.3443 1.98882 13.2443 2.67771 13.9998 3.5666C14.7554 2.67771 15.6554 1.98882 16.6998 1.49993C17.7443 1.01105 18.8443 0.766602 19.9998 0.766602C22.0887 0.766602 23.8332 1.4666 25.2332 2.8666C26.6332 4.2666 27.3332 6.01105 27.3332 8.09993C27.3332 9.12216 27.1612 10.1222 26.8172 11.0999C26.4723 12.0777 25.8665 13.1497 24.9998 14.3159C24.1332 15.483 22.9665 16.7999 21.4998 18.2666C20.0332 19.7333 18.1776 21.4777 15.9332 23.4999L13.9998 25.2333Z" fill="#E84118"/>
</svg>
